<svg xmlns="http://www.w3.org/2000/svg" width="1400" height="512" viewBox="0 0 1400 512" font-family="ui-monospace,SFMono-Regular,Menlo,Consolas,'Liberation Mono',monospace" role="img" aria-label="Projects"><rect width="1400" height="512" fill="#08090A"/><defs><linearGradient id="acc_dark" x1="0" y1="0" x2="1" y2="0"><stop offset="0" stop-color="#D4AF37"><animate attributeName="stop-color" values="#D4AF37;#10B981;#D4AF37" dur="10s" repeatCount="indefinite"/></stop><stop offset="1" stop-color="#10B981"><animate attributeName="stop-color" values="#10B981;#D4AF37;#10B981" dur="10s" repeatCount="indefinite"/></stop></linearGradient></defs><text x="10" y="22" font-size="14" letter-spacing="3" fill="#D4AF37">PROJECTS.LIST</text><text x="178" y="22" font-size="12" fill="#52525B">./projects.sh --all</text><line x1="6" y1="34" x2="1394" y2="34" stroke="url(#acc_dark)" stroke-width="2" opacity="0.7"/><a href="https://github.com/Hemansh-X797/V.I.N.C.E." target="_blank"><g opacity="0" transform="translate(6,52)"><animate attributeName="opacity" from="0" to="1" dur="0.5s" begin="0.25s" fill="freeze"/><rect width="680" height="202" rx="14" fill="#0F1012" stroke="rgba(212,175,55,0.20)"><animate attributeName="stroke" values="rgba(212,175,55,0.16);rgba(16,185,129,0.55);rgba(212,175,55,0.16)" dur="4.5s" begin="0.25s" repeatCount="indefinite"/></rect><rect width="680" height="36" rx="14" fill="#0C0D0E"/><rect y="22" width="680" height="14" fill="#0C0D0E"/><line x1="0" y1="36" x2="680" y2="36" stroke="rgba(255,255,255,0.08)"/><text x="20" y="23" font-size="12" fill="#9CA3AF"><tspan fill="#D4AF37">&#8226;</tspan> Hemansh-X797/V.I.N.C.E.</text><g transform="translate(644,10) scale(1.188)" fill="#9CA3AF"><path d="M4 4v2H3.25A1.25 1.25 0 002 7.25v6.5A1.25 1.25 0 003.25 15h9.5A1.25 1.25 0 0014 13.75v-6.5A1.25 1.25 0 0012.75 6H12V4a4 4 0 10-8 0zm6.5 2H5.5V4a2.5 2.5 0 015 0v2z"/></g><g><animateTransform attributeName="transform" type="translate" values="0 0; 0 -3; 0 0" dur="5s" begin="0.25s" repeatCount="indefinite" calcMode="spline" keyTimes="0;0.5;1" keySplines="0.4 0 0.6 1;0.4 0 0.6 1"/><rect x="20" y="54" width="48" height="48" rx="11" fill="#D4AF37" opacity="0.92"/><text x="44" y="86" text-anchor="middle" font-size="24" font-weight="700" fill="#0A0A0B">V</text></g><text x="84" y="73" font-size="21" font-weight="700" fill="#F5F5F4">V.I.N.C.E.<tspan fill="#10B981">_<animate attributeName="opacity" values="1;0;1" dur="1.2s" begin="0.65s" repeatCount="indefinite"/></tspan></text><text x="84" y="97" font-size="13" fill="#9CA3AF">A custom operating system, built from</text><text x="84" y="116" font-size="13" fill="#9CA3AF">scratch, running directly on bare metal.</text><rect x="84" y="143" width="85" height="21" rx="10.5" fill="rgba(212,175,55,0.10)" stroke="rgba(212,175,55,0.4)"/><text x="126" y="158" text-anchor="middle" font-size="11.5" fill="#D4AF37">OS kernel</text><rect x="176.60000000000002" y="143" width="25" height="21" rx="10.5" fill="rgba(212,175,55,0.10)" stroke="rgba(212,175,55,0.4)"/><text x="189" y="158" text-anchor="middle" font-size="11.5" fill="#D4AF37">C</text><text x="84" y="185" font-size="13" fill="#52525B">private -- stats hidden until public</text><circle cx="606" cy="111" r="34" fill="none" stroke="rgba(255,255,255,0.10)" stroke-width="11" stroke-dasharray="3 6"/><g transform="translate(594,99) scale(1.500)" fill="#52525B"><path d="M4 4v2H3.25A1.25 1.25 0 002 7.25v6.5A1.25 1.25 0 003.25 15h9.5A1.25 1.25 0 0014 13.75v-6.5A1.25 1.25 0 0012.75 6H12V4a4 4 0 10-8 0zm6.5 2H5.5V4a2.5 2.5 0 015 0v2z"/></g></g></a><a href="https://github.com/Hemansh-X797/Aether" target="_blank"><g opacity="0" transform="translate(708,52)"><animate attributeName="opacity" from="0" to="1" dur="0.5s" begin="0.40s" fill="freeze"/><rect width="680" height="202" rx="14" fill="#0F1012" stroke="rgba(212,175,55,0.20)"><animate attributeName="stroke" values="rgba(212,175,55,0.16);rgba(16,185,129,0.55);rgba(212,175,55,0.16)" dur="4.5s" begin="1.10s" repeatCount="indefinite"/></rect><rect width="680" height="36" rx="14" fill="#0C0D0E"/><rect y="22" width="680" height="14" fill="#0C0D0E"/><line x1="0" y1="36" x2="680" y2="36" stroke="rgba(255,255,255,0.08)"/><text x="20" y="23" font-size="12" fill="#9CA3AF"><tspan fill="#D4AF37">&#8226;</tspan> Hemansh-X797/Aether</text><circle cx="661" cy="18" r="4" fill="#52525B"/><g><animateTransform attributeName="transform" type="translate" values="0 0; 0 -3; 0 0" dur="5s" begin="0.90s" repeatCount="indefinite" calcMode="spline" keyTimes="0;0.5;1" keySplines="0.4 0 0.6 1;0.4 0 0.6 1"/><rect x="20" y="54" width="48" height="48" rx="11" fill="#D4AF37" opacity="0.92"/><text x="44" y="86" text-anchor="middle" font-size="24" font-weight="700" fill="#0A0A0B">A</text></g><text x="84" y="73" font-size="21" font-weight="700" fill="#F5F5F4">Aether<tspan fill="#10B981">_<animate attributeName="opacity" values="1;0;1" dur="1.2s" begin="0.80s" repeatCount="indefinite"/></tspan></text><text x="84" y="97" font-size="13" fill="#9CA3AF">A web browser built around speed, with a</text><text x="84" y="116" font-size="13" fill="#9CA3AF">built-in adblocker that strips trackers...</text><rect x="84" y="143" width="122" height="21" rx="10.5" fill="rgba(212,175,55,0.10)" stroke="rgba(212,175,55,0.4)"/><text x="145" y="158" text-anchor="middle" font-size="11.5" fill="#D4AF37">Browser engine</text><rect x="213.60000000000002" y="143" width="40" height="21" rx="10.5" fill="rgba(212,175,55,0.10)" stroke="rgba(212,175,55,0.4)"/><text x="234" y="158" text-anchor="middle" font-size="11.5" fill="#D4AF37">C++</text><text x="84" y="185" font-size="13" fill="#9CA3AF"><tspan fill="#D4AF37">&#9733;</tspan> 0<tspan fill="#52525B" dx="16">updated 1mo ago</tspan></text><circle cx="606" cy="111" r="34" fill="none" stroke="rgba(255,255,255,0.10)" stroke-width="11"/><circle cx="606" cy="111" r="34" fill="none" stroke="#10B981" stroke-width="11" stroke-dasharray="191.33 22.30" stroke-dashoffset="-0.00" transform="rotate(-90 606 111)" opacity="0"><animate attributeName="opacity" from="0" to="1" dur="0.01s" begin="0.70s" fill="freeze"/><animate attributeName="stroke-dasharray" from="0 213.63" to="191.33 22.30" dur="0.6s" begin="0.70s" fill="freeze" calcMode="spline" keyTimes="0;1" keySplines="0.3 0 0.2 1"/></circle><circle cx="606" cy="111" r="34" fill="none" stroke="#D4AF37" stroke-width="11" stroke-dasharray="9.60 204.03" stroke-dashoffset="-191.33" transform="rotate(-90 606 111)" opacity="0"><animate attributeName="opacity" from="0" to="1" dur="0.01s" begin="0.88s" fill="freeze"/><animate attributeName="stroke-dasharray" from="0 213.63" to="9.60 204.03" dur="0.6s" begin="0.88s" fill="freeze" calcMode="spline" keyTimes="0;1" keySplines="0.3 0 0.2 1"/></circle><circle cx="606" cy="111" r="34" fill="none" stroke="#0D9668" stroke-width="11" stroke-dasharray="8.99 204.64" stroke-dashoffset="-200.93" transform="rotate(-90 606 111)" opacity="0"><animate attributeName="opacity" from="0" to="1" dur="0.01s" begin="1.06s" fill="freeze"/><animate attributeName="stroke-dasharray" from="0 213.63" to="8.99 204.64" dur="0.6s" begin="1.06s" fill="freeze" calcMode="spline" keyTimes="0;1" keySplines="0.3 0 0.2 1"/></circle><circle cx="606" cy="111" r="34" fill="none" stroke="#9CA3AF" stroke-width="11" stroke-dasharray="1.14 212.49" stroke-dashoffset="-209.91" transform="rotate(-90 606 111)" opacity="0"><animate attributeName="opacity" from="0" to="1" dur="0.01s" begin="1.24s" fill="freeze"/><animate attributeName="stroke-dasharray" from="0 213.63" to="1.14 212.49" dur="0.6s" begin="1.24s" fill="freeze" calcMode="spline" keyTimes="0;1" keySplines="0.3 0 0.2 1"/></circle><circle cx="606" cy="111" r="34" fill="none" stroke="#10B981" stroke-width="11" stroke-dasharray="2.58 211.05" stroke-dashoffset="-211.05" transform="rotate(-90 606 111)" opacity="0"><animate attributeName="opacity" from="0" to="1" dur="0.01s" begin="1.42s" fill="freeze"/><animate attributeName="stroke-dasharray" from="0 213.63" to="2.58 211.05" dur="0.6s" begin="1.42s" fill="freeze" calcMode="spline" keyTimes="0;1" keySplines="0.3 0 0.2 1"/></circle><text x="606" y="116" text-anchor="middle" font-size="13" font-weight="700" fill="#F5F5F4">90%</text><circle cx="452" cy="85" r="4" fill="#10B981"/><text x="463" y="90" font-size="12" fill="#9CA3AF">C++ 90%</text><circle cx="452" cy="106" r="4" fill="#D4AF37"/><text x="463" y="111" font-size="12" fill="#9CA3AF">JavaScript 4%</text><circle cx="452" cy="127" r="4" fill="#0D9668"/><text x="463" y="132" font-size="12" fill="#9CA3AF">Python 4%</text></g></a><a href="https://github.com/Hemansh-X797/Hyperion" target="_blank"><g opacity="0" transform="translate(6,272)"><animate attributeName="opacity" from="0" to="1" dur="0.5s" begin="0.55s" fill="freeze"/><rect width="680" height="202" rx="14" fill="#0F1012" stroke="rgba(212,175,55,0.20)"><animate attributeName="stroke" values="rgba(212,175,55,0.16);rgba(16,185,129,0.55);rgba(212,175,55,0.16)" dur="4.5s" begin="1.95s" repeatCount="indefinite"/></rect><rect width="680" height="36" rx="14" fill="#0C0D0E"/><rect y="22" width="680" height="14" fill="#0C0D0E"/><line x1="0" y1="36" x2="680" y2="36" stroke="rgba(255,255,255,0.08)"/><text x="20" y="23" font-size="12" fill="#9CA3AF"><tspan fill="#D4AF37">&#8226;</tspan> Hemansh-X797/Hyperion</text><circle cx="661" cy="18" r="4" fill="#10B981"><animate attributeName="opacity" values="1;0.25;1" dur="1.8s" repeatCount="indefinite"/></circle><g><animateTransform attributeName="transform" type="translate" values="0 0; 0 -3; 0 0" dur="5s" begin="1.55s" repeatCount="indefinite" calcMode="spline" keyTimes="0;0.5;1" keySplines="0.4 0 0.6 1;0.4 0 0.6 1"/><rect x="20" y="54" width="48" height="48" rx="11" fill="#D4AF37" opacity="0.92"/><text x="44" y="86" text-anchor="middle" font-size="24" font-weight="700" fill="#0A0A0B">H</text></g><text x="84" y="73" font-size="21" font-weight="700" fill="#F5F5F4">Hyperion<tspan fill="#10B981">_<animate attributeName="opacity" values="1;0;1" dur="1.2s" begin="0.95s" repeatCount="indefinite"/></tspan></text><text x="84" y="97" font-size="13" fill="#9CA3AF">A high-performance graphics and compute</text><text x="84" y="116" font-size="13" fill="#9CA3AF">engine that unlocks the GPU for heavy data...</text><rect x="84" y="143" width="114" height="21" rx="10.5" fill="rgba(212,175,55,0.10)" stroke="rgba(212,175,55,0.4)"/><text x="141" y="158" text-anchor="middle" font-size="11.5" fill="#D4AF37">GPU / compute</text><rect x="206.2" y="143" width="40" height="21" rx="10.5" fill="rgba(212,175,55,0.10)" stroke="rgba(212,175,55,0.4)"/><text x="226" y="158" text-anchor="middle" font-size="11.5" fill="#D4AF37">C++</text><text x="84" y="185" font-size="13" fill="#9CA3AF"><tspan fill="#D4AF37">&#9733;</tspan> 0<tspan fill="#52525B" dx="16">updated 12d ago</tspan></text><circle cx="606" cy="111" r="34" fill="none" stroke="rgba(255,255,255,0.10)" stroke-width="11"/><circle cx="606" cy="111" r="34" fill="none" stroke="#10B981" stroke-width="11" stroke-dasharray="213.63 0.00" stroke-dashoffset="-0.00" transform="rotate(-90 606 111)" opacity="0"><animate attributeName="opacity" from="0" to="1" dur="0.01s" begin="0.85s" fill="freeze"/><animate attributeName="stroke-dasharray" from="0 213.63" to="213.63 0.00" dur="0.6s" begin="0.85s" fill="freeze" calcMode="spline" keyTimes="0;1" keySplines="0.3 0 0.2 1"/></circle><text x="606" y="116" text-anchor="middle" font-size="13" font-weight="700" fill="#F5F5F4">100%</text><circle cx="452" cy="85" r="4" fill="#10B981"/><text x="463" y="90" font-size="12" fill="#9CA3AF">Java 100%</text></g></a><a href="https://github.com/Hemansh-X797/Pulse" target="_blank"><g opacity="0" transform="translate(708,272)"><animate attributeName="opacity" from="0" to="1" dur="0.5s" begin="0.70s" fill="freeze"/><rect width="680" height="202" rx="14" fill="#0F1012" stroke="rgba(212,175,55,0.20)"><animate attributeName="stroke" values="rgba(212,175,55,0.16);rgba(16,185,129,0.55);rgba(212,175,55,0.16)" dur="4.5s" begin="2.80s" repeatCount="indefinite"/></rect><rect width="680" height="36" rx="14" fill="#0C0D0E"/><rect y="22" width="680" height="14" fill="#0C0D0E"/><line x1="0" y1="36" x2="680" y2="36" stroke="rgba(255,255,255,0.08)"/><text x="20" y="23" font-size="12" fill="#9CA3AF"><tspan fill="#D4AF37">&#8226;</tspan> Hemansh-X797/Pulse</text><circle cx="661" cy="18" r="4" fill="#10B981"><animate attributeName="opacity" values="1;0.25;1" dur="1.8s" repeatCount="indefinite"/></circle><g><animateTransform attributeName="transform" type="translate" values="0 0; 0 -3; 0 0" dur="5s" begin="2.20s" repeatCount="indefinite" calcMode="spline" keyTimes="0;0.5;1" keySplines="0.4 0 0.6 1;0.4 0 0.6 1"/><rect x="20" y="54" width="48" height="48" rx="11" fill="#D4AF37" opacity="0.92"/><text x="44" y="86" text-anchor="middle" font-size="24" font-weight="700" fill="#0A0A0B">P</text></g><text x="84" y="73" font-size="21" font-weight="700" fill="#F5F5F4">Pulse<tspan fill="#10B981">_<animate attributeName="opacity" values="1;0;1" dur="1.2s" begin="1.10s" repeatCount="indefinite"/></tspan></text><text x="84" y="97" font-size="13" fill="#9CA3AF">Palspace -- a real-time social platform with</text><text x="84" y="116" font-size="13" fill="#9CA3AF">a live feed and instant chat.</text><rect x="84" y="143" width="129" height="21" rx="10.5" fill="rgba(212,175,55,0.10)" stroke="rgba(212,175,55,0.4)"/><text x="148" y="158" text-anchor="middle" font-size="11.5" fill="#D4AF37">Social platform</text><rect x="221.0" y="143" width="92" height="21" rx="10.5" fill="rgba(212,175,55,0.10)" stroke="rgba(212,175,55,0.4)"/><text x="267" y="158" text-anchor="middle" font-size="11.5" fill="#D4AF37">TypeScript</text><text x="84" y="185" font-size="13" fill="#9CA3AF"><tspan fill="#D4AF37">&#9733;</tspan> 0<tspan fill="#52525B" dx="16">updated 4d ago</tspan></text><circle cx="606" cy="111" r="34" fill="none" stroke="rgba(255,255,255,0.10)" stroke-width="11"/><circle cx="606" cy="111" r="34" fill="none" stroke="#10B981" stroke-width="11" stroke-dasharray="145.50 68.13" stroke-dashoffset="-0.00" transform="rotate(-90 606 111)" opacity="0"><animate attributeName="opacity" from="0" to="1" dur="0.01s" begin="1.00s" fill="freeze"/><animate attributeName="stroke-dasharray" from="0 213.63" to="145.50 68.13" dur="0.6s" begin="1.00s" fill="freeze" calcMode="spline" keyTimes="0;1" keySplines="0.3 0 0.2 1"/></circle><circle cx="606" cy="111" r="34" fill="none" stroke="#D4AF37" stroke-width="11" stroke-dasharray="25.34 188.29" stroke-dashoffset="-145.50" transform="rotate(-90 606 111)" opacity="0"><animate attributeName="opacity" from="0" to="1" dur="0.01s" begin="1.18s" fill="freeze"/><animate attributeName="stroke-dasharray" from="0 213.63" to="25.34 188.29" dur="0.6s" begin="1.18s" fill="freeze" calcMode="spline" keyTimes="0;1" keySplines="0.3 0 0.2 1"/></circle><circle cx="606" cy="111" r="34" fill="none" stroke="#0D9668" stroke-width="11" stroke-dasharray="22.30 191.33" stroke-dashoffset="-170.84" transform="rotate(-90 606 111)" opacity="0"><animate attributeName="opacity" from="0" to="1" dur="0.01s" begin="1.36s" fill="freeze"/><animate attributeName="stroke-dasharray" from="0 213.63" to="22.30 191.33" dur="0.6s" begin="1.36s" fill="freeze" calcMode="spline" keyTimes="0;1" keySplines="0.3 0 0.2 1"/></circle><circle cx="606" cy="111" r="34" fill="none" stroke="#9CA3AF" stroke-width="11" stroke-dasharray="11.61 202.02" stroke-dashoffset="-193.14" transform="rotate(-90 606 111)" opacity="0"><animate attributeName="opacity" from="0" to="1" dur="0.01s" begin="1.54s" fill="freeze"/><animate attributeName="stroke-dasharray" from="0 213.63" to="11.61 202.02" dur="0.6s" begin="1.54s" fill="freeze" calcMode="spline" keyTimes="0;1" keySplines="0.3 0 0.2 1"/></circle><circle cx="606" cy="111" r="34" fill="none" stroke="#10B981" stroke-width="11" stroke-dasharray="8.88 204.75" stroke-dashoffset="-204.75" transform="rotate(-90 606 111)" opacity="0"><animate attributeName="opacity" from="0" to="1" dur="0.01s" begin="1.72s" fill="freeze"/><animate attributeName="stroke-dasharray" from="0 213.63" to="8.88 204.75" dur="0.6s" begin="1.72s" fill="freeze" calcMode="spline" keyTimes="0;1" keySplines="0.3 0 0.2 1"/></circle><text x="606" y="116" text-anchor="middle" font-size="13" font-weight="700" fill="#F5F5F4">68%</text><circle cx="452" cy="85" r="4" fill="#10B981"/><text x="463" y="90" font-size="12" fill="#9CA3AF">TypeScript 68%</text><circle cx="452" cy="106" r="4" fill="#D4AF37"/><text x="463" y="111" font-size="12" fill="#9CA3AF">PLpgSQL 12%</text><circle cx="452" cy="127" r="4" fill="#0D9668"/><text x="463" y="132" font-size="12" fill="#9CA3AF">C++ 10%</text></g></a></svg>